<svg width="200" height="79" viewBox="0 0 200 79" fill="none" xmlns="http://www.w3.org/2000/svg">
<path d="M103.256 28.7308L112.771 28.1157C112.988 29.6715 113.386 30.8292 114.038 31.6613C115.087 32.9638 116.534 33.615 118.452 33.615C119.863 33.615 120.984 33.2894 121.744 32.602C122.467 32.0593 122.902 31.191 122.902 30.2865C122.902 29.4182 122.504 28.5861 121.816 28.0434C121.093 27.3921 119.392 26.7409 116.715 26.162C112.337 25.1852 109.19 23.8827 107.344 22.2185C105.499 20.6628 104.45 18.3835 104.522 15.9594C104.522 14.2952 105.029 12.6309 105.97 11.2561C107.055 9.70039 108.538 8.47029 110.311 7.78288C112.229 6.95076 114.906 6.5166 118.271 6.5166C122.395 6.5166 125.543 7.27637 127.713 8.83209C129.884 10.3516 131.187 12.8118 131.585 16.1765L122.178 16.7192C121.925 15.272 121.418 14.2228 120.586 13.5354C119.754 12.848 118.669 12.5224 117.258 12.5224C116.1 12.5224 115.232 12.7756 114.653 13.246C114.11 13.6801 113.748 14.3314 113.784 15.055C113.784 15.5976 114.074 16.1042 114.508 16.4298C114.978 16.8639 116.1 17.2619 117.873 17.6237C122.25 18.5644 125.362 19.505 127.279 20.4819C129.197 21.4587 130.572 22.6526 131.404 24.0636C132.272 25.5108 132.706 27.1751 132.67 28.8755C132.67 30.9016 132.091 32.9276 130.933 34.628C129.74 36.4008 128.075 37.7756 126.122 38.6078C124.059 39.5123 121.454 39.9826 118.343 39.9826C112.844 39.9826 109.045 38.9334 106.91 36.7988C104.776 34.6642 103.509 31.9869 103.256 28.7308ZM2.27931 39.4399V7.09547H18.958C22.0333 7.09547 24.4211 7.34873 26.0492 7.89142C27.6411 8.39793 29.0521 9.44714 29.9928 10.8581C31.042 12.4139 31.5485 14.2228 31.5123 16.1042C31.6208 19.2879 29.9928 22.327 27.2069 23.9189C26.1216 24.534 24.9276 24.9681 23.6975 25.1852C24.602 25.4385 25.5065 25.8726 26.3025 26.3791C26.9175 26.8856 27.424 27.4645 27.8944 28.0796C28.437 28.6946 28.9074 29.382 29.3054 30.1056L34.1534 39.4761H22.7931L17.4385 29.5267C16.7511 28.2605 16.1722 27.4283 15.6295 27.0303C14.9059 26.5238 14.0376 26.2706 13.1693 26.2706H12.301V39.4037H2.27931V39.4399ZM12.301 20.1924H16.534C17.4385 20.1201 18.3068 19.9754 19.1751 19.7583C19.8263 19.6497 20.4052 19.2879 20.8032 18.7453C21.78 17.4428 21.6353 15.5976 20.4414 14.4761C19.7902 13.9334 18.5239 13.644 16.7149 13.644H12.301V20.1924ZM0 67.1534L9.51519 66.5383C9.73227 68.094 10.1302 69.2518 10.7815 70.0839C11.7945 71.3864 13.2779 72.0738 15.1954 72.0738C16.6064 72.0738 17.7279 71.7481 18.4877 71.0607C19.2113 70.4819 19.6454 69.6497 19.6454 68.7453C19.6454 67.8769 19.2475 67.0448 18.5601 66.5021C17.8365 65.8509 16.136 65.1997 13.4226 64.6208C9.04486 63.644 5.89725 62.3415 4.0521 60.6772C2.20695 59.1215 1.15774 56.8422 1.2301 54.4182C1.2301 52.7539 1.73661 51.0897 2.67728 49.7149C3.76266 48.1591 5.24602 46.929 7.01881 46.2416C8.93632 45.4095 11.6136 44.9754 14.9783 44.9754C19.1028 44.9754 22.2504 45.7351 24.4211 47.2908C26.5919 48.8466 27.8582 51.2706 28.2561 54.6353L18.8495 55.178C18.5962 53.7308 18.0897 52.6816 17.2576 51.9942C16.4617 51.3068 15.3401 50.9811 13.9291 51.0173C12.7713 51.0173 11.903 51.2706 11.3242 51.7771C10.7453 52.2112 10.4197 52.8625 10.4559 53.5861C10.4559 54.1288 10.7453 54.6353 11.1795 54.9609C11.6498 55.395 12.7713 55.793 14.5441 56.1548C18.9219 57.0955 22.0333 58.0361 23.9508 59.013C25.8683 59.9898 27.2431 61.1838 28.0753 62.5947C28.9436 64.0419 29.3777 65.7062 29.3777 67.3704C29.3777 69.3965 28.7627 71.3864 27.6411 73.0868C26.4472 74.8596 24.7829 76.2344 22.8292 77.0665C20.767 77.971 18.1621 78.4413 15.0507 78.4413C9.55137 78.4413 5.75253 77.3921 3.61794 75.2576C1.48336 73.0868 0.289436 70.4095 0 67.1534Z" fill="white"/>
<path d="M48.1186 64.6208L56.8741 67.2619C56.4037 69.4688 55.4269 71.5672 54.0883 73.4124C52.8582 75.0405 51.2301 76.3067 49.3849 77.1389C47.5036 77.971 45.1157 78.4052 42.2214 78.4052C38.712 78.4052 35.8176 77.8986 33.6107 76.8856C31.3676 75.8726 29.45 74.0636 27.822 71.4949C26.1939 68.9261 25.3979 65.6338 25.3979 61.6179C25.3979 56.2633 26.8089 52.1389 29.6671 49.2807C32.5253 46.4225 36.5412 44.9753 41.7511 44.9753C45.8393 44.9753 49.0231 45.8075 51.3748 47.4355C53.6903 49.0998 55.4269 51.6324 56.5846 55.0332L47.7569 56.9869C47.5398 56.2272 47.2142 55.4674 46.78 54.8162C46.2373 54.0564 45.5499 53.4775 44.7178 53.0434C43.8856 52.6092 42.945 52.4283 42.0043 52.4283C39.725 52.4283 37.9884 53.3328 36.7945 55.1779C35.89 56.5166 35.4197 58.6512 35.4197 61.5455C35.4197 65.1273 35.9623 67.5875 37.0477 68.9261C38.1331 70.2648 39.6527 70.916 41.6425 70.916C43.56 70.916 45.0072 70.3733 45.9841 69.3241C46.9609 68.2025 47.6845 66.6468 48.1186 64.6208ZM68.56 45.518H78.5456V56.8422H89.4718V45.518H99.5296V77.8625H89.4718V64.7655H78.5456V77.8625H68.56V45.518Z" fill="white"/>
<path d="M98.1548 61.6903C98.1548 56.4081 99.6382 52.2836 102.569 49.3531C105.499 46.4226 109.624 44.9392 114.87 44.9392C120.26 44.9392 124.385 46.3864 127.315 49.2807C130.246 52.1751 131.693 56.2272 131.693 61.437C131.693 65.2359 131.042 68.3111 129.776 70.7352C128.546 73.123 126.628 75.0767 124.276 76.3791C121.852 77.7178 118.849 78.4052 115.268 78.4052C111.614 78.4052 108.611 77.8263 106.223 76.6686C103.763 75.4385 101.737 73.521 100.398 71.1693C98.9146 68.6367 98.1548 65.4891 98.1548 61.6903ZM108.14 61.7265C108.14 64.9826 108.755 67.3343 109.949 68.7815C111.143 70.1925 112.808 70.9161 114.906 70.9161C117.041 70.9161 118.705 70.2286 119.899 68.8176C121.093 67.4066 121.671 64.9103 121.671 61.2923C121.671 58.2532 121.056 56.0101 119.826 54.6353C118.596 53.2243 116.932 52.5369 114.834 52.5369C112.988 52.4645 111.216 53.2605 109.986 54.6715C108.755 56.0825 108.14 58.4341 108.14 61.7265ZM141.932 61.6903C141.932 56.4081 143.415 52.2836 146.346 49.3531C149.276 46.4226 153.401 44.9392 158.647 44.9392C164.038 44.9392 168.198 46.3864 171.093 49.2807C173.987 52.1751 175.47 56.2272 175.47 61.437C175.47 65.2359 174.819 68.3111 173.553 70.7352C172.323 73.123 170.405 75.0767 168.054 76.3791C165.63 77.7178 162.627 78.4052 159.045 78.4052C155.391 78.4052 152.388 77.8263 150 76.6686C147.54 75.4385 145.514 73.521 144.175 71.1693C142.692 68.6367 141.932 65.4891 141.932 61.6903ZM151.918 61.7265C151.918 64.9826 152.533 67.3343 153.726 68.7815C154.92 70.1925 156.585 70.9161 158.683 70.9161C160.818 70.9161 162.482 70.2286 163.676 68.8176C164.87 67.4066 165.449 64.9103 165.449 61.2923C165.449 58.2532 164.834 56.0101 163.603 54.6353C162.373 53.2243 160.709 52.5369 158.611 52.5369C156.766 52.4645 154.957 53.2605 153.763 54.6715C152.533 56.0825 151.918 58.4341 151.918 61.7265Z" fill="white"/>
<path d="M174.421 45.5181H184.407V69.903H200V77.8625H174.385V45.5181H174.421Z" fill="white"/>
<path d="M163.415 43.6515C173.468 36.0756 176.568 23.2331 170.339 14.967C164.11 6.70097 150.91 6.14156 140.857 13.7175C130.804 21.2935 127.704 34.136 133.933 42.4021C140.162 50.6681 153.362 51.2275 163.415 43.6515Z" fill="white"/>
<mask id="mask0_4_83" style="mask-type:luminance" maskUnits="userSpaceOnUse" x="130" y="8" width="44" height="41">
<path d="M163.415 43.6515C173.468 36.0756 176.568 23.2331 170.339 14.967C164.11 6.70097 150.91 6.14156 140.857 13.7175C130.804 21.2935 127.704 34.136 133.933 42.4021C140.162 50.6681 153.362 51.2275 163.415 43.6515Z" fill="white"/>
</mask>
<g mask="url(#mask0_4_83)">
<path d="M108.294 24.585L160.245 -14.5644L196.194 33.1393L144.243 72.2886L108.294 24.585Z" fill="white"/>
<mask id="mask1_4_83" style="mask-type:luminance" maskUnits="userSpaceOnUse" x="108" y="-15" width="89" height="88">
<path d="M108.294 24.585L160.245 -14.5644L196.194 33.1393L144.243 72.2886L108.294 24.585Z" fill="white"/>
</mask>
<g mask="url(#mask1_4_83)">
<path d="M163.415 43.6515C173.468 36.0756 176.568 23.2331 170.339 14.967C164.11 6.70097 150.91 6.14156 140.857 13.7175C130.804 21.2935 127.704 34.136 133.933 42.4021C140.162 50.6681 153.362 51.2275 163.415 43.6515Z" fill="white"/>
<mask id="mask2_4_83" style="mask-type:luminance" maskUnits="userSpaceOnUse" x="130" y="8" width="44" height="41">
<path d="M163.415 43.6515C173.468 36.0756 176.568 23.2331 170.339 14.967C164.11 6.70097 150.91 6.14156 140.857 13.7175C130.804 21.2935 127.704 34.136 133.933 42.4021C140.162 50.6681 153.362 51.2275 163.415 43.6515Z" fill="white"/>
</mask>
<g mask="url(#mask2_4_83)">
<path d="M122.761 27.7703L159.138 0.357626L181.717 30.3209L145.34 57.7335L122.761 27.7703Z" fill="white"/>
<mask id="mask3_4_83" style="mask-type:luminance" maskUnits="userSpaceOnUse" x="122" y="0" width="60" height="58">
<path d="M122.761 27.7703L159.138 0.357626L181.717 30.3209L145.34 57.7335L122.761 27.7703Z" fill="white"/>
</mask>
<g mask="url(#mask3_4_83)">
<path d="M163.415 43.6515C173.468 36.0756 176.568 23.2331 170.339 14.967C164.11 6.70097 150.91 6.14156 140.857 13.7175C130.804 21.2935 127.704 34.136 133.933 42.4021C140.162 50.6681 153.362 51.2275 163.415 43.6515Z" fill="white" stroke="white" stroke-width="4" stroke-miterlimit="10"/>
</g>
<mask id="mask4_4_83" style="mask-type:luminance" maskUnits="userSpaceOnUse" x="127" y="1" width="50" height="56">
<path d="M127.945 45.7649L140.5 1.97948L176.565 12.3209L164.009 56.1063L127.945 45.7649Z" fill="white"/>
</mask>
<g mask="url(#mask4_4_83)">
<path d="M122.761 27.7703L159.138 0.357627L181.717 30.3209L145.34 57.7335L122.761 27.7703Z" stroke="white" stroke-width="4" stroke-miterlimit="10"/>
</g>
<path d="M163.415 43.6515C173.468 36.0756 176.568 23.2331 170.339 14.967C164.11 6.70097 150.91 6.14156 140.857 13.7175C130.804 21.2935 127.704 34.136 133.933 42.4021C140.162 50.6681 153.362 51.2275 163.415 43.6515Z" stroke="white" stroke-width="4" stroke-miterlimit="10"/>
<path d="M122.761 27.7703L159.138 0.357626L181.717 30.3209L145.34 57.7335L122.761 27.7703Z" fill="white"/>
<mask id="mask5_4_83" style="mask-type:luminance" maskUnits="userSpaceOnUse" x="122" y="0" width="60" height="58">
<path d="M122.761 27.7703L159.138 0.357626L181.717 30.3209L145.34 57.7335L122.761 27.7703Z" fill="white"/>
</mask>
<g mask="url(#mask5_4_83)">
<path d="M163.415 43.6515C173.468 36.0756 176.568 23.2331 170.339 14.967C164.11 6.70097 150.91 6.14156 140.857 13.7175C130.804 21.2935 127.704 34.136 133.933 42.4021C140.162 50.6681 153.362 51.2275 163.415 43.6515Z" fill="white" stroke="white" stroke-width="4" stroke-miterlimit="10"/>
</g>
<mask id="mask6_4_83" style="mask-type:luminance" maskUnits="userSpaceOnUse" x="127" y="1" width="50" height="56">
<path d="M127.945 45.7649L140.5 1.97948L176.565 12.3209L164.009 56.1063L127.945 45.7649Z" fill="white"/>
</mask>
<g mask="url(#mask6_4_83)">
<path d="M122.761 27.7703L159.138 0.357627L181.717 30.3209L145.34 57.7335L122.761 27.7703Z" stroke="white" stroke-width="4" stroke-miterlimit="10"/>
</g>
<path d="M108.294 24.585L160.245 -14.5644L196.194 33.1393L144.243 72.2886L108.294 24.585Z" stroke="white" stroke-width="4" stroke-miterlimit="10"/>
</g>
<path d="M163.415 43.6515C173.468 36.0756 176.568 23.2331 170.339 14.967C164.11 6.70097 150.91 6.14156 140.857 13.7175C130.804 21.2935 127.704 34.136 133.933 42.4021C140.162 50.6681 153.362 51.2275 163.415 43.6515Z" fill="#171616" stroke="white" stroke-width="4" stroke-miterlimit="10"/>
<path d="M141.968 26.307L145.586 23.7744L150.036 30.1058C150.796 31.1188 151.375 32.2042 151.809 33.3981C152.062 34.3026 151.99 35.2795 151.628 36.1478C151.158 37.2331 150.398 38.1376 149.385 38.7889C148.191 39.621 147.178 40.0913 146.31 40.236C145.478 40.3808 144.609 40.236 143.813 39.8742C142.945 39.4401 142.185 38.825 141.606 38.0291L144.718 35.1347C144.971 35.5327 145.297 35.8945 145.658 36.1839C145.912 36.3648 146.201 36.4734 146.527 36.4734C146.78 36.4734 147.033 36.3648 147.214 36.2201C147.576 36.003 147.829 35.5689 147.793 35.1347C147.685 34.5197 147.431 33.9046 147.033 33.4343L141.968 26.307ZM152.822 30.3229L156.114 27.718C156.476 28.1521 156.946 28.4777 157.453 28.6586C158.177 28.8757 158.936 28.731 159.551 28.2606C159.986 27.9712 160.347 27.5732 160.492 27.0667C160.709 26.4155 160.347 25.6919 159.696 25.4748C159.588 25.4386 159.479 25.4025 159.37 25.4025C158.936 25.3663 158.177 25.5472 157.055 26.0175C155.21 26.7773 153.763 27.0667 152.677 26.9582C151.628 26.8496 150.651 26.307 150.072 25.4025C149.638 24.7874 149.421 24.0638 149.385 23.3402C149.385 22.5081 149.602 21.676 150.072 20.9886C150.76 20.0117 151.592 19.1796 152.605 18.5284C154.124 17.4792 155.463 16.9727 156.621 16.9727C157.779 16.9727 158.864 17.5153 159.877 18.6369L156.621 21.2057C155.97 20.3735 154.74 20.1926 153.907 20.8439L153.799 20.9524C153.437 21.1695 153.184 21.4951 153.039 21.8931C152.931 22.1825 153.003 22.5081 153.184 22.7614C153.329 22.9423 153.546 23.087 153.799 23.087C154.088 23.1232 154.595 22.9784 155.318 22.6528C157.127 21.8931 158.502 21.4589 159.443 21.3142C160.239 21.1695 161.071 21.2418 161.831 21.5674C162.518 21.8569 163.097 22.3634 163.495 22.9784C164.001 23.702 164.291 24.5703 164.327 25.4748C164.363 26.4155 164.11 27.32 163.603 28.1159C162.952 29.0928 162.12 29.9249 161.143 30.5761C159.153 31.9509 157.525 32.5298 156.223 32.3127C154.812 32.0957 153.654 31.3721 152.822 30.3229Z" fill="white"/>
</g>
</g>
</svg>
