<svg width="354" height="57" viewBox="0 0 354 57" fill="none" xmlns="http://www.w3.org/2000/svg">
<path d="M197.009 0.183956C195.441 0.56535 194.41 1.34226 193.675 2.69832C193.223 3.53173 193.195 3.67299 193.167 5.07143L193.153 6.55462L187.474 9.83176C184.352 11.6398 181.739 13.123 181.654 13.123C181.584 13.123 181.287 12.9253 180.99 12.6993C179.394 11.4138 176.837 11.3715 175.072 12.5863C173.25 13.8434 172.515 16.3578 173.377 18.4484C173.574 18.9145 173.885 19.4937 174.069 19.7338C174.563 20.3412 175.707 21.1464 176.329 21.3442L176.88 21.4995V28.181V34.8765L175.976 35.2862C174.422 35.9924 173.405 37.3061 173.066 39.086C172.699 41.0918 173.899 43.3378 175.863 44.2983C176.569 44.6373 176.837 44.6938 177.939 44.6938C179.041 44.6938 179.324 44.6373 180.058 44.2983C180.524 44.0723 181.061 43.7474 181.259 43.5638L181.612 43.2248L187.403 46.5725L193.195 49.9062V51.3329C193.195 52.5618 193.237 52.8443 193.562 53.5224C194.028 54.5112 194.904 55.3869 195.921 55.8813C196.627 56.2345 196.882 56.2769 198.068 56.2769C199.269 56.2769 199.495 56.2345 200.229 55.8672C201.19 55.3728 201.981 54.5535 202.546 53.4941C202.913 52.8019 202.942 52.6183 202.927 51.2199V49.6943L208.535 46.4595C211.629 44.6656 214.228 43.2106 214.327 43.2106C214.412 43.2106 214.708 43.4084 214.991 43.6485C215.909 44.4537 216.629 44.6938 218.127 44.6938C219.313 44.6938 219.553 44.6373 220.245 44.2983C221.277 43.7757 222.011 43.0411 222.548 42.01C222.958 41.2331 223 41.0494 223 39.8205C223 38.6339 222.958 38.3797 222.604 37.6734C222.11 36.6705 220.895 35.5404 219.949 35.2014L219.257 34.9471V28.2375V21.5137L220.147 21.1323C221.206 20.6661 222.039 19.861 222.604 18.7733C222.958 18.0811 223 17.841 223 16.6544C223 15.5103 222.943 15.1995 222.633 14.5356C221.842 12.8547 220.288 11.8235 218.381 11.7387C217.095 11.6681 216.206 11.9224 215.146 12.6569C214.609 13.0242 214.355 13.123 214.171 13.0242C214.03 12.9677 211.445 11.4845 208.436 9.74701L202.942 6.58287V5.15618C202.942 3.88487 202.899 3.64474 202.56 2.95258C202.122 2.04854 201.19 1.05975 200.441 0.678352C199.848 0.367588 198.436 -0.0138016 197.998 0.000320435C197.842 0.000320435 197.404 0.0850754 197.009 0.183956ZM193.011 11.4703C183.378 28.1668 179.437 34.9471 179.309 34.9895C179.182 35.0319 179.14 33.3227 179.14 28.2798V21.5137L179.903 21.1888C181.019 20.7368 181.866 19.9175 182.417 18.8015C182.841 17.9399 182.883 17.7562 182.883 16.4991V15.143L188.675 11.8094C191.853 9.9589 194.494 8.53221 194.523 8.61696C194.551 8.70171 193.859 9.98715 193.011 11.4703ZM207.801 12.0212L213.211 15.1713L213.239 16.5838C213.253 17.6856 213.324 18.1376 213.564 18.6462C214.101 19.8468 215.273 20.9204 216.474 21.3018L216.997 21.4854L216.968 28.1951C216.94 32.5317 216.869 34.933 216.785 34.9613C216.714 34.9895 215.711 33.3792 214.567 31.3734C213.423 29.3816 210.004 23.4489 206.982 18.2224C203.959 12.9818 201.501 8.63108 201.543 8.57458C201.628 8.43333 201.317 8.26382 207.801 12.0212ZM199.693 10.1284C199.735 10.2273 203.097 16.1035 207.179 23.1664C211.262 30.2151 214.595 36.0489 214.595 36.0913C214.595 36.1478 214.426 36.4021 214.228 36.6705C214.03 36.9247 213.705 37.4898 213.522 37.9135L213.169 38.6904H197.998H182.841L182.657 38.1537C182.459 37.5321 182.177 37.066 181.725 36.5575L181.386 36.1902L185.793 28.5765C188.209 24.3953 191.613 18.4767 193.364 15.4538L196.543 9.94477H198.082C199.241 9.93064 199.636 9.97302 199.693 10.1284ZM213.253 41.2189C213.253 41.5014 201.868 48.084 201.656 47.9145C201.571 47.858 201.232 47.5896 200.893 47.3353C199.255 46.1064 196.656 46.177 194.904 47.519C194.452 47.858 194.339 47.8862 194.071 47.745C192.008 46.6432 182.883 41.2613 182.841 41.12C182.798 40.9788 185.864 40.9505 198.026 40.9788C211.191 41.0212 213.253 41.0494 213.253 41.2189Z" fill="#9DC647"/>
<path d="M26.332 23.3936V35.2266C25.8672 35.7871 25.1494 36.3955 24.1787 37.0518C23.208 37.6943 21.957 38.248 20.4258 38.7129C18.8945 39.1777 17.042 39.4102 14.8682 39.4102C12.9404 39.4102 11.1836 39.0957 9.59766 38.4668C8.01172 37.8242 6.64453 36.8877 5.49609 35.6572C4.36133 34.4268 3.48633 32.9229 2.87109 31.1455C2.25586 29.3545 1.94824 27.3105 1.94824 25.0137V23.1475C1.94824 20.8506 2.24219 18.8066 2.83008 17.0156C3.43164 15.2246 4.28613 13.7139 5.39355 12.4834C6.50098 11.2529 7.82031 10.3164 9.35156 9.67383C10.8828 9.03125 12.585 8.70996 14.458 8.70996C17.0557 8.70996 19.1885 9.13379 20.8564 9.98145C22.5244 10.8154 23.7959 11.9775 24.6709 13.4678C25.5596 14.9443 26.1064 16.6396 26.3115 18.5537H20.3438C20.1934 17.542 19.9062 16.6602 19.4824 15.9082C19.0586 15.1562 18.4502 14.5684 17.6572 14.1445C16.8779 13.7207 15.8662 13.5088 14.6221 13.5088C13.5967 13.5088 12.6807 13.7207 11.874 14.1445C11.0811 14.5547 10.4111 15.1631 9.86426 15.9697C9.31738 16.7764 8.90039 17.7744 8.61328 18.9639C8.32617 20.1533 8.18262 21.5342 8.18262 23.1064V25.0137C8.18262 26.5723 8.33301 27.9531 8.63379 29.1562C8.93457 30.3457 9.37891 31.3506 9.9668 32.1709C10.5684 32.9775 11.3066 33.5859 12.1816 33.9961C13.0566 34.4062 14.0752 34.6113 15.2373 34.6113C16.208 34.6113 17.0146 34.5293 17.6572 34.3652C18.3135 34.2012 18.8398 34.0029 19.2363 33.7705C19.6465 33.5244 19.9609 33.292 20.1797 33.0732V27.7822H14.5605V23.3936H26.332ZM36.832 21.6504V39H30.9258V16.8105H36.4834L36.832 21.6504ZM43.5176 16.667L43.415 22.1426C43.1279 22.1016 42.7793 22.0674 42.3691 22.04C41.9727 21.999 41.6104 21.9785 41.2822 21.9785C40.4482 21.9785 39.7236 22.0879 39.1084 22.3066C38.5068 22.5117 38.001 22.8193 37.5908 23.2295C37.1943 23.6396 36.8936 24.1387 36.6885 24.7266C36.4971 25.3145 36.3877 25.9844 36.3604 26.7363L35.1709 26.3672C35.1709 24.9316 35.3145 23.6123 35.6016 22.4092C35.8887 21.1924 36.3057 20.1328 36.8525 19.2305C37.4131 18.3281 38.0967 17.6309 38.9033 17.1387C39.71 16.6465 40.6328 16.4004 41.6719 16.4004C42 16.4004 42.335 16.4277 42.6768 16.4824C43.0186 16.5234 43.2988 16.585 43.5176 16.667ZM57.5859 33.9961V24.1113C57.5859 23.4004 57.4697 22.792 57.2373 22.2861C57.0049 21.7666 56.6426 21.3633 56.1504 21.0762C55.6719 20.7891 55.0498 20.6455 54.2842 20.6455C53.6279 20.6455 53.0605 20.7617 52.582 20.9941C52.1035 21.2129 51.7344 21.5342 51.4746 21.958C51.2148 22.3682 51.085 22.8535 51.085 23.4141H45.1787C45.1787 22.4707 45.3975 21.5752 45.835 20.7275C46.2725 19.8799 46.9082 19.1348 47.7422 18.4922C48.5762 17.8359 49.5674 17.3232 50.7158 16.9541C51.8779 16.585 53.1768 16.4004 54.6123 16.4004C56.335 16.4004 57.8662 16.6875 59.2061 17.2617C60.5459 17.8359 61.5986 18.6973 62.3643 19.8457C63.1436 20.9941 63.5332 22.4297 63.5332 24.1523V33.6475C63.5332 34.8643 63.6084 35.8623 63.7588 36.6416C63.9092 37.4072 64.1279 38.0771 64.415 38.6514V39H58.4473C58.1602 38.3984 57.9414 37.6465 57.791 36.7441C57.6543 35.8281 57.5859 34.9121 57.5859 33.9961ZM58.3652 25.4854L58.4062 28.8281H55.1045C54.3252 28.8281 53.6484 28.917 53.0742 29.0947C52.5 29.2725 52.0283 29.5254 51.6592 29.8535C51.29 30.168 51.0166 30.5371 50.8389 30.9609C50.6748 31.3848 50.5928 31.8496 50.5928 32.3555C50.5928 32.8613 50.709 33.3193 50.9414 33.7295C51.1738 34.126 51.5088 34.4404 51.9463 34.6729C52.3838 34.8916 52.8965 35.001 53.4844 35.001C54.373 35.001 55.1455 34.8232 55.8018 34.4678C56.458 34.1123 56.9639 33.6748 57.3193 33.1553C57.6885 32.6357 57.8799 32.1436 57.8936 31.6787L59.4521 34.1807C59.2334 34.7412 58.9326 35.3223 58.5498 35.9238C58.1807 36.5254 57.709 37.0928 57.1348 37.626C56.5605 38.1455 55.8701 38.5762 55.0635 38.918C54.2568 39.2461 53.2998 39.4102 52.1924 39.4102C50.7842 39.4102 49.5059 39.1299 48.3574 38.5693C47.2227 37.9951 46.3203 37.209 45.6504 36.2109C44.9941 35.1992 44.666 34.0508 44.666 32.7656C44.666 31.6035 44.8848 30.5713 45.3223 29.6689C45.7598 28.7666 46.4023 28.0078 47.25 27.3926C48.1113 26.7637 49.1846 26.292 50.4697 25.9775C51.7549 25.6494 53.2451 25.4854 54.9404 25.4854H58.3652ZM73.9922 21.0762V47.5312H68.0859V16.8105H73.5615L73.9922 21.0762ZM88.04 27.6592V28.0898C88.04 29.7031 87.8486 31.2002 87.4658 32.5811C87.0967 33.9619 86.5498 35.165 85.8252 36.1904C85.1006 37.2021 84.1982 37.9951 83.1182 38.5693C82.0518 39.1299 80.8213 39.4102 79.4268 39.4102C78.0732 39.4102 76.8975 39.1367 75.8994 38.5898C74.9014 38.043 74.0605 37.2773 73.377 36.293C72.707 35.2949 72.167 34.1396 71.7568 32.8271C71.3467 31.5146 71.0322 30.1064 70.8135 28.6025V27.4746C71.0322 25.8613 71.3467 24.3848 71.7568 23.0449C72.167 21.6914 72.707 20.5225 73.377 19.5381C74.0605 18.54 74.8945 17.7676 75.8789 17.2207C76.877 16.6738 78.0459 16.4004 79.3857 16.4004C80.7939 16.4004 82.0312 16.667 83.0977 17.2002C84.1777 17.7334 85.0801 18.499 85.8047 19.4971C86.543 20.4951 87.0967 21.6846 87.4658 23.0654C87.8486 24.4463 88.04 25.9775 88.04 27.6592ZM82.1133 28.0898V27.6592C82.1133 26.7158 82.0312 25.8477 81.8672 25.0547C81.7168 24.248 81.4707 23.5439 81.1289 22.9424C80.8008 22.3408 80.3633 21.876 79.8164 21.5479C79.2832 21.2061 78.6338 21.0352 77.8682 21.0352C77.0615 21.0352 76.3711 21.165 75.7969 21.4248C75.2363 21.6846 74.7783 22.0605 74.4229 22.5527C74.0674 23.0449 73.8008 23.6328 73.623 24.3164C73.4453 25 73.3359 25.7725 73.2949 26.6338V29.4844C73.3633 30.4961 73.5547 31.4053 73.8691 32.2119C74.1836 33.0049 74.6689 33.6338 75.3252 34.0986C75.9814 34.5635 76.8428 34.7959 77.9092 34.7959C78.6885 34.7959 79.3447 34.625 79.8779 34.2832C80.4111 33.9277 80.8418 33.4424 81.1699 32.8271C81.5117 32.2119 81.751 31.501 81.8877 30.6943C82.0381 29.8877 82.1133 29.0195 82.1133 28.0898ZM97.4736 7.5V39H91.5674V7.5H97.4736ZM96.6328 27.126H95.0127C95.0264 25.5811 95.2314 24.1592 95.6279 22.8604C96.0244 21.5479 96.5918 20.4131 97.3301 19.4561C98.0684 18.4854 98.9502 17.7334 99.9756 17.2002C101.015 16.667 102.163 16.4004 103.421 16.4004C104.515 16.4004 105.506 16.5576 106.395 16.8721C107.297 17.1729 108.069 17.665 108.712 18.3486C109.368 19.0186 109.874 19.9004 110.229 20.9941C110.585 22.0879 110.763 23.4141 110.763 24.9727V39H104.815V24.9316C104.815 23.9473 104.672 23.1748 104.385 22.6143C104.111 22.04 103.708 21.6367 103.175 21.4043C102.655 21.1582 102.013 21.0352 101.247 21.0352C100.399 21.0352 99.6748 21.1924 99.0732 21.5068C98.4854 21.8213 98.0137 22.2588 97.6582 22.8193C97.3027 23.3662 97.043 24.0088 96.8789 24.7471C96.7148 25.4854 96.6328 26.2783 96.6328 27.126ZM131.845 34.5703L139.925 40.9688L136.049 44.332L128.092 37.9336L131.845 34.5703ZM140.13 23.373V24.7881C140.13 27.0576 139.822 29.0947 139.207 30.8994C138.605 32.7041 137.737 34.2422 136.603 35.5137C135.468 36.7715 134.128 37.7354 132.583 38.4053C131.038 39.0752 129.322 39.4102 127.436 39.4102C125.562 39.4102 123.847 39.0752 122.288 38.4053C120.729 37.7354 119.383 36.7715 118.248 35.5137C117.113 34.2422 116.231 32.7041 115.603 30.8994C114.987 29.0947 114.68 27.0576 114.68 24.7881V23.373C114.68 21.0898 114.987 19.0527 115.603 17.2617C116.231 15.457 117.106 13.9189 118.228 12.6475C119.349 11.376 120.688 10.4053 122.247 9.73535C123.806 9.06543 125.521 8.73047 127.395 8.73047C129.281 8.73047 130.997 9.06543 132.542 9.73535C134.101 10.4053 135.447 11.376 136.582 12.6475C137.717 13.9189 138.592 15.457 139.207 17.2617C139.822 19.0527 140.13 21.0898 140.13 23.373ZM133.916 24.7881V23.332C133.916 21.7461 133.766 20.3516 133.465 19.1484C133.178 17.9453 132.754 16.9336 132.193 16.1133C131.646 15.293 130.97 14.6777 130.163 14.2676C129.356 13.8437 128.434 13.6318 127.395 13.6318C126.355 13.6318 125.433 13.8437 124.626 14.2676C123.819 14.6777 123.143 15.293 122.596 16.1133C122.049 16.9336 121.632 17.9453 121.345 19.1484C121.058 20.3516 120.914 21.7461 120.914 23.332V24.7881C120.914 26.3604 121.058 27.7549 121.345 28.9717C121.632 30.1748 122.049 31.1934 122.596 32.0273C123.156 32.8477 123.84 33.4697 124.646 33.8936C125.467 34.3174 126.396 34.5293 127.436 34.5293C128.475 34.5293 129.391 34.3174 130.184 33.8936C130.99 33.4697 131.667 32.8477 132.214 32.0273C132.774 31.1934 133.198 30.1748 133.485 28.9717C133.772 27.7549 133.916 26.3604 133.916 24.7881ZM150.445 7.5V39H144.519V7.5H150.445Z" fill="#637C2D"/>
<path d="M259.975 29.0947H266.106C265.983 31.1045 265.43 32.8887 264.445 34.4473C263.475 36.0059 262.114 37.2227 260.364 38.0977C258.628 38.9727 256.536 39.4102 254.089 39.4102C252.175 39.4102 250.459 39.082 248.941 38.4258C247.424 37.7559 246.125 36.7988 245.045 35.5547C243.979 34.3105 243.165 32.8066 242.604 31.043C242.044 29.2793 241.764 27.3037 241.764 25.1162V23.0449C241.764 20.8574 242.051 18.8818 242.625 17.1182C243.213 15.3408 244.047 13.8301 245.127 12.5859C246.221 11.3418 247.526 10.3848 249.044 9.71484C250.562 9.04492 252.257 8.70996 254.13 8.70996C256.618 8.70996 258.717 9.16113 260.426 10.0635C262.148 10.9658 263.481 12.21 264.425 13.7959C265.382 15.3818 265.956 17.1865 266.147 19.21H259.995C259.927 18.0068 259.688 16.9883 259.277 16.1543C258.867 15.3066 258.245 14.6709 257.411 14.2471C256.591 13.8096 255.497 13.5908 254.13 13.5908C253.104 13.5908 252.209 13.7822 251.443 14.165C250.678 14.5479 250.035 15.1289 249.516 15.9082C248.996 16.6875 248.606 17.6719 248.347 18.8613C248.101 20.0371 247.978 21.418 247.978 23.0039V25.1162C247.978 26.6611 248.094 28.0215 248.326 29.1973C248.559 30.3594 248.914 31.3438 249.393 32.1504C249.885 32.9434 250.514 33.5449 251.279 33.9551C252.059 34.3516 252.995 34.5498 254.089 34.5498C255.374 34.5498 256.434 34.3447 257.268 33.9346C258.102 33.5244 258.737 32.916 259.175 32.1094C259.626 31.3027 259.893 30.2979 259.975 29.0947ZM268.834 28.1309V27.7002C268.834 26.0732 269.066 24.5762 269.531 23.209C269.996 21.8281 270.673 20.6318 271.562 19.6201C272.45 18.6084 273.544 17.8223 274.843 17.2617C276.142 16.6875 277.632 16.4004 279.313 16.4004C280.995 16.4004 282.492 16.6875 283.805 17.2617C285.117 17.8223 286.218 18.6084 287.106 19.6201C288.009 20.6318 288.692 21.8281 289.157 23.209C289.622 24.5762 289.854 26.0732 289.854 27.7002V28.1309C289.854 29.7441 289.622 31.2412 289.157 32.6221C288.692 33.9893 288.009 35.1855 287.106 36.2109C286.218 37.2227 285.124 38.0088 283.825 38.5693C282.526 39.1299 281.036 39.4102 279.354 39.4102C277.673 39.4102 276.176 39.1299 274.863 38.5693C273.564 38.0088 272.464 37.2227 271.562 36.2109C270.673 35.1855 269.996 33.9893 269.531 32.6221C269.066 31.2412 268.834 29.7441 268.834 28.1309ZM274.74 27.7002V28.1309C274.74 29.0605 274.822 29.9287 274.986 30.7354C275.15 31.542 275.41 32.2529 275.766 32.8682C276.135 33.4697 276.613 33.9414 277.201 34.2832C277.789 34.625 278.507 34.7959 279.354 34.7959C280.175 34.7959 280.879 34.625 281.467 34.2832C282.055 33.9414 282.526 33.4697 282.882 32.8682C283.237 32.2529 283.497 31.542 283.661 30.7354C283.839 29.9287 283.928 29.0605 283.928 28.1309V27.7002C283.928 26.7979 283.839 25.9502 283.661 25.1572C283.497 24.3506 283.23 23.6396 282.861 23.0244C282.506 22.3955 282.034 21.9033 281.446 21.5479C280.858 21.1924 280.147 21.0146 279.313 21.0146C278.479 21.0146 277.769 21.1924 277.181 21.5479C276.606 21.9033 276.135 22.3955 275.766 23.0244C275.41 23.6396 275.15 24.3506 274.986 25.1572C274.822 25.9502 274.74 26.7979 274.74 27.7002ZM306.589 34.1602V7.5H312.536V39H307.184L306.589 34.1602ZM292.562 28.1719V27.7412C292.562 26.0459 292.753 24.5078 293.136 23.127C293.519 21.7324 294.079 20.5361 294.817 19.5381C295.556 18.54 296.465 17.7676 297.545 17.2207C298.625 16.6738 299.855 16.4004 301.236 16.4004C302.535 16.4004 303.67 16.6738 304.641 17.2207C305.625 17.7676 306.459 18.5469 307.143 19.5586C307.84 20.5566 308.4 21.7393 308.824 23.1064C309.248 24.46 309.556 25.9434 309.747 27.5566V28.5C309.556 30.0449 309.248 31.4805 308.824 32.8066C308.4 34.1328 307.84 35.2949 307.143 36.293C306.459 37.2773 305.625 38.043 304.641 38.5898C303.656 39.1367 302.508 39.4102 301.195 39.4102C299.814 39.4102 298.584 39.1299 297.504 38.5693C296.438 38.0088 295.535 37.2227 294.797 36.2109C294.072 35.1992 293.519 34.0098 293.136 32.6426C292.753 31.2754 292.562 29.7852 292.562 28.1719ZM298.468 27.7412V28.1719C298.468 29.0879 298.536 29.9424 298.673 30.7354C298.823 31.5283 299.062 32.2324 299.391 32.8477C299.732 33.4492 300.17 33.9209 300.703 34.2627C301.25 34.5908 301.913 34.7549 302.692 34.7549C303.704 34.7549 304.538 34.5293 305.194 34.0781C305.851 33.6133 306.35 32.9775 306.691 32.1709C307.047 31.3643 307.252 30.4346 307.307 29.3818V26.6953C307.266 25.834 307.143 25.0615 306.938 24.3779C306.746 23.6807 306.459 23.0859 306.076 22.5938C305.707 22.1016 305.242 21.7188 304.682 21.4453C304.135 21.1719 303.485 21.0352 302.733 21.0352C301.968 21.0352 301.312 21.2129 300.765 21.5684C300.218 21.9102 299.773 22.3818 299.432 22.9834C299.104 23.585 298.857 24.2959 298.693 25.1162C298.543 25.9229 298.468 26.7979 298.468 27.7412ZM323.385 16.8105V39H317.458V16.8105H323.385ZM317.089 11.0273C317.089 10.166 317.39 9.45508 317.991 8.89453C318.593 8.33398 319.399 8.05371 320.411 8.05371C321.409 8.05371 322.209 8.33398 322.811 8.89453C323.426 9.45508 323.733 10.166 323.733 11.0273C323.733 11.8887 323.426 12.5996 322.811 13.1602C322.209 13.7207 321.409 14.001 320.411 14.001C319.399 14.001 318.593 13.7207 317.991 13.1602C317.39 12.5996 317.089 11.8887 317.089 11.0273ZM334.049 21.5479V39H328.143V16.8105H333.68L334.049 21.5479ZM333.188 27.126H331.588C331.588 25.4854 331.8 24.0088 332.224 22.6963C332.647 21.3701 333.242 20.2422 334.008 19.3125C334.773 18.3691 335.683 17.6514 336.735 17.1592C337.802 16.6533 338.991 16.4004 340.304 16.4004C341.343 16.4004 342.293 16.5508 343.154 16.8516C344.016 17.1523 344.754 17.6309 345.369 18.2871C345.998 18.9434 346.477 19.8115 346.805 20.8916C347.146 21.9717 347.317 23.291 347.317 24.8496V39H341.37V24.8291C341.37 23.8447 341.233 23.0791 340.96 22.5322C340.687 21.9854 340.283 21.6025 339.75 21.3838C339.23 21.1514 338.588 21.0352 337.822 21.0352C337.029 21.0352 336.339 21.1924 335.751 21.5068C335.177 21.8213 334.698 22.2588 334.315 22.8193C333.946 23.3662 333.666 24.0088 333.475 24.7471C333.283 25.4854 333.188 26.2783 333.188 27.126Z" fill="#BFF450"/>
</svg>
