<svg width="35" height="40" viewBox="0 0 35 40" fill="none" xmlns="http://www.w3.org/2000/svg">
<path d="M16.8062 0.128765C15.7086 0.395741 14.9868 0.939579 14.4726 1.88882C14.1562 2.47221 14.1364 2.57109 14.1167 3.55L14.1068 4.58823L10.1318 6.88223C7.94658 8.14789 6.11731 9.18612 6.05798 9.18612C6.00854 9.18612 5.8009 9.04769 5.59325 8.88949C4.47591 7.98968 2.68619 7.96002 1.4502 8.81038C0.174656 9.69041 -0.339517 11.4505 0.263648 12.9139C0.402079 13.2402 0.619614 13.6456 0.748157 13.8137C1.09423 14.2389 1.89516 14.8025 2.33023 14.9409L2.71586 15.0497V19.7267V24.4136L2.08303 24.7003C0.995355 25.1947 0.283423 26.1143 0.0461127 27.3602C-0.210974 28.7643 0.629501 30.3364 2.00393 31.0088C2.49832 31.2461 2.68619 31.2857 3.45745 31.2857C4.22871 31.2857 4.42647 31.2461 4.94065 31.0088C5.26695 30.8506 5.64269 30.6232 5.78112 30.4946L6.02832 30.2573L10.0824 32.6008L14.1364 34.9343V35.933C14.1364 36.7933 14.1661 36.991 14.3935 37.4656C14.7198 38.1578 15.3329 38.7709 16.0448 39.1169C16.5392 39.3641 16.7172 39.3938 17.5478 39.3938C18.3883 39.3938 18.5465 39.3641 19.0606 39.107C19.733 38.761 20.2867 38.1875 20.6823 37.4459C20.9393 36.9614 20.9591 36.8328 20.9492 35.8539V34.786L24.8747 32.5217C27.0402 31.2659 28.8596 30.2474 28.9288 30.2474C28.9881 30.2474 29.1958 30.3859 29.3935 30.554C30.0362 31.1176 30.5405 31.2857 31.5887 31.2857C32.4192 31.2857 32.5873 31.2461 33.0718 31.0088C33.7937 30.643 34.3078 30.1288 34.6836 29.407C34.9703 28.8631 35 28.7346 35 27.8743C35 27.0438 34.9703 26.8658 34.7231 26.3714C34.3771 25.6693 33.5267 24.8783 32.8642 24.641L32.3797 24.463V19.7662V15.0596L33.0026 14.7926C33.7442 14.4663 34.3276 13.9027 34.7231 13.1413C34.9703 12.6568 35 12.4887 35 11.6581C35 10.8572 34.9604 10.6397 34.7429 10.1749C34.1892 8.99825 33.1015 8.27643 31.7666 8.21711C30.8668 8.16767 30.2439 8.34565 29.5023 8.85982C29.1266 9.11691 28.9486 9.18612 28.82 9.11691C28.7212 9.07736 26.9117 8.03912 24.8055 6.82291L20.9591 4.60801V3.60932C20.9591 2.71941 20.9295 2.55131 20.6921 2.0668C20.3856 1.43398 19.733 0.741817 19.209 0.474846C18.7937 0.257309 17.8049 -0.00966644 17.4983 0.000221252C17.3896 0.000221252 17.083 0.0595512 16.8062 0.128765ZM14.0079 8.02923C7.26431 19.7168 4.50558 24.463 4.41658 24.4927C4.32759 24.5223 4.29793 23.3259 4.29793 19.7959V15.0596L4.83188 14.8321C5.61303 14.5157 6.2063 13.9422 6.59193 13.1611C6.88857 12.5579 6.91823 12.4294 6.91823 11.5493V10.6001L10.9723 8.26655C13.1971 6.97123 15.0461 5.97254 15.0659 6.03187C15.0857 6.0912 14.6012 6.991 14.0079 8.02923ZM24.3606 8.41486L28.1477 10.6199L28.1674 11.6087C28.1773 12.3799 28.2268 12.6963 28.3949 13.0523C28.7706 13.8928 29.5913 14.6443 30.4318 14.9112L30.7976 15.0398L30.7778 19.7366C30.7581 22.7722 30.7086 24.4531 30.6493 24.4729C30.5999 24.4927 29.8978 23.3654 29.0969 21.9613C28.296 20.5672 25.9031 16.4142 23.7871 12.7557C21.671 9.08724 19.9505 6.04176 19.9802 6.0022C20.0395 5.90333 19.822 5.78467 24.3606 8.41486ZM18.6849 7.08988C18.7146 7.1591 21.0679 11.2725 23.9255 16.2165C26.7831 21.1505 29.1167 25.2343 29.1167 25.2639C29.1167 25.3035 28.998 25.4815 28.8596 25.6693C28.7212 25.8473 28.4937 26.2428 28.3652 26.5395L28.118 27.0833H17.4983H6.88857L6.76003 26.7076C6.6216 26.2725 6.42384 25.9462 6.10742 25.5902L5.87011 25.3331L8.95515 20.0035C10.646 17.0767 13.029 12.9337 14.2551 10.8176L16.4799 6.96134H17.5577C18.3685 6.95145 18.6453 6.98111 18.6849 7.08988ZM28.1773 28.8532C28.1773 29.051 20.2076 33.6588 20.0593 33.5401C20 33.5006 19.7627 33.3127 19.5254 33.1347C18.3784 32.2745 16.559 32.3239 15.3329 33.2633C15.0165 33.5006 14.9374 33.5204 14.7495 33.4215C13.3058 32.6502 6.91823 28.8829 6.88857 28.784C6.85891 28.6852 9.00459 28.6654 17.5181 28.6852C26.7337 28.7148 28.1773 28.7346 28.1773 28.8532Z" fill="#9DC647"/>
</svg>
